<svg width="76" height="64" viewBox="0 0 76 64" fill="none" xmlns="http://www.w3.org/2000/svg">
<g clip-path="url(#clip0_90_3414)">
<path d="M67.8464 20.9193L67.5832 20.9973L68.8066 24.9796C70.5564 30.6797 67.3485 36.7205 61.6367 38.4667L61.3948 38.5377L62.5969 42.449C64.3468 48.1491 61.1317 54.1828 55.4199 55.9361L34.3652 62.3744C37.6799 61.1109 40.6532 59.1659 43.1143 56.7098C44.0746 55.7586 44.9495 54.7223 45.739 53.6291L53.9404 51.1233C55.4128 50.669 56.622 49.6752 57.3475 48.3194C58.073 46.9636 58.2224 45.402 57.7672 43.9326L56.7714 40.6886L51.8491 42.1934L50.1704 42.7045C50.2131 42.4561 50.2416 42.2005 50.27 41.945C50.3767 41.008 50.4336 40.0568 50.4336 39.0914C50.4336 38.5164 50.4123 37.9414 50.3696 37.3736C50.3554 37.1393 50.334 36.898 50.3127 36.6637L60.1643 33.6469C61.6367 33.1996 62.8459 32.1988 63.5714 30.8429C64.297 29.4871 64.4392 27.9255 63.9911 26.4561L62.9953 23.2121L47.7662 27.8687C47.6453 27.6344 47.5244 27.4002 47.3964 27.173C46.685 25.8598 45.8528 24.6247 44.9139 23.4747C44.7361 23.2547 44.5582 23.0417 44.3733 22.8287L66.374 16.0994C67.8464 15.6522 69.0556 14.6513 69.7811 13.2955C70.4995 11.9397 70.6489 10.378 70.2008 8.90861L69.205 5.6646L35.0908 16.0994C32.1317 14.8642 28.8811 14.1828 25.4668 14.1828C24.9689 14.1828 24.4781 14.197 23.9873 14.2254L70.1297 0.113576C70.3786 0.0354925 70.6276 0 70.8694 0C71.9506 0 72.9535 0.695652 73.2807 1.78172L75.0163 7.43212C76.7661 13.1322 73.5582 19.173 67.8393 20.9193H67.8464Z" fill="url(#paint0_linear_90_3414)"/>
<path d="M29.877 58.4773C29.9267 58.4631 29.9765 58.456 30.0263 58.4419C30.8799 58.2431 31.7335 57.9804 32.5657 57.661C32.6084 57.6468 32.651 57.6326 32.6866 57.6113L29.877 58.4702V58.4773Z" fill="url(#paint1_linear_90_3414)"/>
<path d="M50.3625 37.3736C50.3483 37.1394 50.3269 36.898 50.3056 36.6638C49.9997 33.5262 49.1177 30.5591 47.752 27.8758C47.6311 27.6416 47.5101 27.4073 47.3821 27.1802C46.6708 25.867 45.8386 24.6318 44.8997 23.4819C44.7218 23.2618 44.544 23.0489 44.3591 22.8359C43.9607 22.3674 43.5411 21.9202 43.1072 21.4872C40.8239 19.2086 38.0996 17.3701 35.0765 16.1065C32.1175 14.8714 28.8668 14.1899 25.4526 14.1899C24.9547 14.1899 24.4639 14.2041 23.9731 14.2325C10.8851 14.9921 0.5 25.8315 0.5 39.0914V61.4801C0.5 62.8714 1.63097 64.0001 3.02513 64.0001H25.4597C27.4229 64.0001 29.3363 63.7729 31.1786 63.347L34.3652 62.3745C37.6799 61.111 40.6532 59.166 43.1143 56.7099C44.0745 55.7587 44.9494 54.7223 45.739 53.6292C48.0223 50.4632 49.5729 46.7436 50.1633 42.7117C50.206 42.4632 50.2344 42.2077 50.2629 41.9521C50.3696 41.0151 50.4265 40.0639 50.4265 39.0985C50.4265 38.5236 50.4052 37.9486 50.3625 37.3807V37.3736ZM45.2482 41.3701C45.1628 42.1225 45.0348 42.8607 44.8641 43.599C44.8001 43.8616 44.7361 44.1314 44.6649 44.3869C43.7545 47.6735 41.9904 50.7117 39.5506 53.1465C37.6088 55.0844 35.2401 56.6318 32.6937 57.6185C32.651 57.6398 32.6154 57.654 32.5727 57.6682C31.7405 57.9876 30.8869 58.2503 30.0334 58.449C29.9836 58.4632 29.9338 58.4703 29.884 58.4845C29.6564 58.5342 29.4217 58.5839 29.194 58.6265C29.1229 58.6407 29.0447 58.6549 28.9735 58.6691C28.8526 58.6904 28.7388 58.7117 28.6179 58.7259C28.5325 58.7401 28.4472 58.7543 28.3547 58.7685C28.3049 58.7756 28.248 58.7827 28.1982 58.7898C28.12 58.804 28.0488 58.8111 27.9706 58.8182C27.5225 58.8749 27.0744 58.9104 26.6262 58.9388C26.5764 58.9388 26.5195 58.9459 26.4697 58.9459C26.3773 58.9459 26.2777 58.953 26.1781 58.9601C26.0501 58.9601 25.922 58.9672 25.794 58.9743C25.6873 58.9743 25.5806 58.9743 25.4739 58.9743H5.55027V39.1056C5.55027 29.7711 12.0303 21.8634 20.8362 19.7765C21.953 19.5067 23.0982 19.3363 24.2789 19.2725C24.6701 19.2512 25.0614 19.237 25.4597 19.237C25.6233 19.237 25.7869 19.237 25.9505 19.237C30.8158 19.3505 35.3824 21.2032 38.9531 24.4969C39.1523 24.6815 39.3515 24.8661 39.5435 25.0577L39.5933 25.1074C40.0699 25.583 40.5322 26.1012 40.9661 26.6407C40.9661 26.6407 40.9661 26.6478 40.9733 26.6549C41.4996 27.308 41.9833 27.9894 42.4243 28.7064C42.5666 28.9335 42.7017 29.1607 42.8298 29.3949C42.8724 29.4659 42.908 29.5369 42.9507 29.6079C44.3306 32.1278 45.1273 34.8607 45.3193 37.7427C45.3335 37.8918 45.3407 38.048 45.3478 38.197C45.362 38.4384 45.3691 38.6797 45.3691 38.9211C45.3691 38.985 45.3691 39.0489 45.3691 39.1127C45.3691 39.8794 45.3264 40.646 45.2411 41.3914L45.2482 41.3701Z" fill="url(#paint2_linear_90_3414)"/>
<path d="M35.5392 31.6097C35.3684 31.3896 35.1977 31.1696 35.0128 30.9566C34.8065 30.7153 34.586 30.481 34.3655 30.261C33.3483 29.2459 32.1462 28.4012 30.8303 27.7765C30.4604 27.6061 30.0834 27.45 29.6993 27.3151C29.2512 27.1518 28.7889 27.017 28.3123 26.9105C27.4089 26.7046 26.47 26.5981 25.5098 26.5981C24.6562 26.5981 23.824 26.6833 23.0131 26.8466C17.2871 27.9965 12.9766 33.0507 12.9766 39.1057V49.0933C12.9766 50.4846 14.1075 51.6132 15.5017 51.6132H25.5098C29.2583 51.6132 32.6157 49.9735 34.9132 47.3754C35.1906 47.0631 35.4467 46.7437 35.6814 46.41C36.7768 44.891 37.5379 43.1234 37.858 41.2068C37.9007 40.9584 37.9363 40.7028 37.9647 40.4473C38.0145 40.0072 38.0358 39.5671 38.0358 39.1128C38.0358 36.3018 37.104 33.7037 35.5392 31.6168V31.6097ZM32.3383 42.158C32.2031 42.4633 32.0466 42.7543 31.8759 43.0312C30.5529 45.1536 28.1985 46.5733 25.5098 46.5733H18.0268V39.1057C18.0268 35.3222 20.8578 32.1918 24.5139 31.702C24.8411 31.6594 25.1754 31.6381 25.5098 31.6381C26.911 31.6381 28.2198 32.0214 29.3437 32.6957C29.6282 32.8661 29.8985 33.0507 30.1546 33.2565C31.883 34.6265 32.9856 36.7348 32.9856 39.1057C32.9856 40.1918 32.7508 41.2281 32.3312 42.158H32.3383Z" fill="url(#paint3_linear_90_3414)"/>
</g>
<defs>
<linearGradient id="paint0_linear_90_3414" x1="25.858" y1="15.5741" x2="64.0088" y2="37.6471" gradientUnits="userSpaceOnUse">
<stop offset="0.15" stop-color="#EABDC7"/>
<stop offset="0.47" stop-color="#F7D8B5"/>
<stop offset="0.82" stop-color="#A8B3EA"/>
<stop offset="1" stop-color="#9DA6ED"/>
</linearGradient>
<linearGradient id="paint1_linear_90_3414" x1="32.5515" y1="54.9636" x2="59.1207" y2="42.6346" gradientUnits="userSpaceOnUse">
<stop offset="0.15" stop-color="#EABDC7"/>
<stop offset="0.47" stop-color="#F7D8B5"/>
<stop offset="0.82" stop-color="#A8B3EA"/>
<stop offset="1" stop-color="#9DA6ED"/>
</linearGradient>
<linearGradient id="paint2_linear_90_3414" x1="9.30596" y1="34.5129" x2="55.4507" y2="61.2142" gradientUnits="userSpaceOnUse">
<stop stop-color="#EABDC7"/>
<stop offset="0.35" stop-color="#F7D8B5"/>
<stop offset="0.46" stop-color="#DDCBC6"/>
<stop offset="0.64" stop-color="#B6B9E0"/>
<stop offset="0.74" stop-color="#A8B3EA"/>
<stop offset="1" stop-color="#9DA6ED"/>
</linearGradient>
<linearGradient id="paint3_linear_90_3414" x1="13.7377" y1="34.4349" x2="35.4244" y2="46.9809" gradientUnits="userSpaceOnUse">
<stop stop-color="#EABDC7"/>
<stop offset="0.54" stop-color="#F7D8B5"/>
<stop offset="1" stop-color="#A8B3EA"/>
</linearGradient>
<clipPath id="clip0_90_3414">
<rect width="75" height="64" fill="white" transform="translate(0.5)"/>
</clipPath>
</defs>
</svg>
